<svg height="511pt" viewBox="-25 0 511 511.99759" width="511pt" xmlns="http://www.w3.org/2000/svg"><path d="m230.898438 511.996094c5.339843 0 10.699218-.082032 16.058593-.203125.332031.089843.667969.160156 1.007813.203125.425781-.050782.847656-.136719 1.261718-.253906 10.679688-.28125 21.351563-.800782 31.925782-1.558594.308594.082031.625.148437.945312.191406.679688-.050781 1.347656-.183594 1.988282-.402344 10.722656-.816406 21.3125-1.886718 31.679687-3.191406.164063.011719.300781.09375.464844.09375.757812-.046875 1.5-.195312 2.214843-.445312 10.878907-1.421876 21.480469-3.109376 31.683594-5.0625.085938 0 .152344.046874.238282.046874 1.191406-.007812 2.367187-.265624 3.449218-.761718 11.457032-2.289063 22.359375-4.921875 32.535156-7.886719.609376-.105469 1.207032-.277344 1.78125-.511719 11.445313-3.320312 22.613282-7.53125 33.402344-12.59375.34375-.132812.675782-.292968 1-.476562 23.980469-11.695313 38.761719-26.40625 38.761719-43.984375v-179.203125c0-49.882813-118.707031-76.796875-230.398437-76.796875-111.691407 0-230.398438 26.914062-230.398438 76.796875v179.203125c0 49.882812 118.707031 76.796875 230.398438 76.796875zm213.332031-204.457032c-41.652344 26.539063-120.746094 42.324219-213.332031 42.324219-92.585938 0-171.679688-15.785156-213.332032-42.324219v-21.078124c36.734375 30.277343 127.097656 46.335937 213.332032 46.335937 86.234374 0 176.597656-16.058594 213.332031-46.332031zm-17.066407 149.816407v-30.519531c0-4.714844-3.820312-8.535157-8.53125-8.535157-4.714843 0-8.535156 3.820313-8.535156 8.535157v39.578124c-5.15625 2.273438-10.871094 4.464844-17.066406 6.5625v-29.074218c0-4.714844-3.820312-8.535156-8.53125-8.535156-4.714844 0-8.535156 3.820312-8.535156 8.535156v34.25c-5.410156 1.46875-11.113282 2.863281-17.066406 4.183594v-29.902344c0-4.710938-3.820313-8.53125-8.53125-8.53125-4.714844 0-8.535157 3.820312-8.535157 8.53125v33.316406c-5.511719.992188-11.199219 1.917969-17.066406 2.773438v-27.554688c0-4.714844-3.820313-8.535156-8.535156-8.535156-4.710938 0-8.53125 3.820312-8.53125 8.535156v29.769531c-5.546875.636719-11.257813 1.1875-17.066407 1.6875v-22.925781c0-4.710938-3.820312-8.53125-8.535156-8.53125-4.710937 0-8.53125 3.820312-8.53125 8.53125v24.167969c-5.589844.332031-11.277344.601562-17.066406.804687v-24.972656c0-4.710938-3.820312-8.53125-8.535156-8.53125-4.710938 0-8.53125 3.820312-8.53125 8.53125v25.363281c-2.832032.035157-5.664063.066407-8.535156.066407-125.71875 0-213.332032-31.476563-213.332032-59.730469v-107.777344c64.554688 35.441406 169.164063 39.507813 213.332032 39.507813 44.167968 0 148.777343-4.066407 213.332031-39.507813v107.777344c0 7.371093-6.011719 14.960937-17.066407 22.15625zm-196.265624-261.089844c125.722656 0 213.332031 31.476563 213.332031 59.730469s-87.609375 59.734375-213.332031 59.734375c-125.71875 0-213.332032-31.480469-213.332032-59.734375s87.613282-59.730469 213.332032-59.730469zm0 0"/><path d="m213.832031 230.398438h34.132813c4.714844 0 8.535156-3.820313 8.535156-8.535157 0-4.710937-3.820312-8.53125-8.535156-8.53125h-34.132813c-4.710937 0-8.535156 3.820313-8.535156 8.53125 0 4.714844 3.824219 8.535157 8.535156 8.535157zm0 0"/><path d="m51.699219 264.53125h34.132812c4.714844 0 8.535157-3.820312 8.535157-8.535156 0-4.710938-3.820313-8.53125-8.535157-8.53125h-34.132812c-4.714844 0-8.535157 3.820312-8.535157 8.53125 0 4.714844 3.820313 8.535156 8.535157 8.535156zm0 0"/><path d="m375.964844 264.53125h34.132812c4.714844 0 8.535156-3.820312 8.535156-8.535156 0-4.710938-3.820312-8.53125-8.535156-8.53125h-34.132812c-4.710938 0-8.53125 3.820312-8.53125 8.53125 0 4.714844 3.820312 8.535156 8.53125 8.535156zm0 0"/><path d="m213.832031 298.664062h34.132813c4.714844 0 8.535156-3.820312 8.535156-8.53125 0-4.714843-3.820312-8.535156-8.535156-8.535156h-34.132813c-4.710937 0-8.535156 3.820313-8.535156 8.535156 0 4.710938 3.824219 8.53125 8.535156 8.53125zm0 0"/><path d="m126.21875 63.769531c26.679688-29.726562 64.738281-46.707031 104.679688-46.707031 39.941406 0 78 16.980469 104.679687 46.707031 2.054687 2.308594 5.199219 3.328125 8.21875 2.664063 3.019531-.667969 5.441406-2.914063 6.332031-5.878906.890625-2.960938.109375-6.171876-2.042968-8.390626-29.90625-33.207031-72.5-52.164062-117.1875-52.164062s-87.277344 18.957031-117.1875 52.164062c-2.152344 2.21875-2.933594 5.429688-2.042969 8.390626.890625 2.964843 3.316406 5.210937 6.335937 5.878906 3.019532.664062 6.160156-.355469 8.214844-2.664063zm0 0"/><path d="m312.25 95.984375c3.390625 0 6.460938-2.011719 7.816406-5.121094 1.359375-3.109375.742188-6.726562-1.5625-9.214843-22.363281-24.816407-54.199218-38.984376-87.605468-38.984376s-65.242188 14.167969-87.605469 38.984376c-3.082031 3.46875-2.828125 8.769531.574219 11.925781 3.40625 3.15625 8.707031 3.015625 11.9375-.320313 19.132812-21.335937 46.4375-33.523437 75.09375-33.523437s55.964843 12.1875 75.097656 33.523437c1.609375 1.742188 3.878906 2.734375 6.253906 2.730469zm0 0"/><path d="m282.667969 127.996094c3.394531 0 6.464843-2.007813 7.820312-5.117188 1.359375-3.113281.746094-6.730468-1.5625-9.21875-14.820312-16.421875-35.90625-25.796875-58.027343-25.796875-22.121094 0-43.207032 9.375-58.027344 25.796875-2.148438 2.222656-2.929688 5.433594-2.039063 8.394532.886719 2.960937 3.3125 5.210937 6.332031 5.875 3.019532.667968 6.160157-.351563 8.214844-2.664063 11.59375-12.941406 28.144532-20.335937 45.519532-20.335937 17.371093 0 33.925781 7.394531 45.515624 20.335937 1.613282 1.746094 3.878907 2.734375 6.253907 2.730469zm0 0"/><path d="m202.457031 140.613281c-2.152343 2.222657-2.933593 5.433594-2.042969 8.394531.890626 2.960938 3.3125 5.210938 6.332032 5.875 3.019531.667969 6.164062-.351562 8.21875-2.664062 4.121094-4.417969 9.890625-6.925781 15.933594-6.925781 6.042968 0 11.8125 2.507812 15.933593 6.925781 3.230469 3.335938 8.53125 3.476562 11.933594.320312s3.660156-8.457031.574219-11.925781c-7.273438-8.03125-17.605469-12.617187-28.441406-12.617187-10.835938 0-21.167969 4.585937-28.441407 12.617187zm0 0"/></svg>