<svg id="Capa_1" enable-background="new 0 0 512 512" height="512" viewBox="0 0 512 512" width="512" xmlns="http://www.w3.org/2000/svg"><g><path d="m370.312 0h-228.624c-28.294 0-51.312 23.019-51.312 51.312v409.375c0 28.294 23.019 51.312 51.312 51.312h228.625c28.294 0 51.312-23.019 51.312-51.312v-409.375c0-28.293-23.019-51.312-51.313-51.312zm-228.624 30h228.625c11.752 0 21.312 9.561 21.312 21.312v8.938h-271.25v-8.938c0-11.751 9.561-21.312 21.313-21.312zm249.937 60.25v271.25h-271.25v-271.25zm-21.313 391.75h-228.624c-11.752 0-21.312-9.561-21.312-21.312v-69.188h271.25v69.188c-.001 11.751-9.562 21.312-21.314 21.312z"/><path d="m286.125 421.75h-60.25c-8.284 0-15 6.716-15 15s6.716 15 15 15h60.25c8.284 0 15-6.716 15-15s-6.716-15-15-15z"/><path d="m165.625 271h45.25v45.25c0 8.284 6.716 15 15 15h60.25c8.284 0 15-6.716 15-15v-45.25h45.25c8.284 0 15-6.716 15-15v-60.25c0-8.284-6.716-15-15-15h-45.25v-45.25c0-8.284-6.716-15-15-15h-60.25c-8.284 0-15 6.716-15 15v45.25h-45.25c-8.284 0-15 6.716-15 15v60.25c0 8.284 6.716 15 15 15zm15-60.25h45.25c8.284 0 15-6.716 15-15v-45.25h30.25v45.25c0 8.284 6.716 15 15 15h45.25v30.25h-45.25c-8.284 0-15 6.716-15 15v45.25h-30.25v-45.25c0-8.284-6.716-15-15-15h-45.25z"/></g></svg>