<svg id="Capa_1" enable-background="new 0 0 512 512" height="512" viewBox="0 0 512 512" width="512" xmlns="http://www.w3.org/2000/svg"><g><path d="m504.117 293.77-38.574-20.791c-3.107-13.827-11.477-44.991-29.284-76.428-32.061-56.602-79.091-86.52-136.007-86.52-70.481 0-108.808 28.189-128.549 51.837-6.789 8.132-11.894 16.302-15.712 23.73-4.634-8.761-7.831-17.28-10.958-25.641-9.13-24.413-18.57-49.657-62.024-59.125-25.999-5.664-43.19 2.347-53.035 10.065-27.914 21.882-29.841 64.694-29.969 69.503-.133 5.018 2.252 9.771 6.356 12.662.822.579 82.49 58.155 107.533 80.003 18.715 16.327 27.455 40.517 23.38 64.707l-6.405 38.021c-1.566 9.296 1.027 18.756 7.114 25.955s14.985 11.327 24.413 11.327h26.369c8.688 0 16.813-3.424 22.88-9.641 6.068-6.217 9.293-14.424 9.082-23.108l-1.061-43.604c12.005 4.595 24.242 8.526 36.58 11.745 24.005 6.265 55.736 10.085 89.349 10.758.161.003.589.012.946.498.376.511.249.952.201 1.118l-3.292 11.372c-2.822 9.746-.944 19.988 5.152 28.099s15.412 12.763 25.558 12.763h23.47c8.693 0 17.122-3.606 23.125-9.894 6.002-6.287 9.214-14.874 8.812-23.556l-1.206-26.032c16.909-4.372 32.97-12.637 47.503-20.116 9.421-4.848 18.32-9.427 26.402-12.458 5.508-2.065 9.3-7.16 9.699-13.029s-2.67-11.429-7.848-14.22zm-104.518 87.243c.026.559-.157 1.047-.543 1.452-.387.405-.867.61-1.426.61h-23.47c-.653 0-1.184-.265-1.576-.787-.393-.522-.5-1.105-.318-1.732l3.292-11.372c2.727-9.417.957-19.347-4.856-27.244-5.8-7.881-14.733-12.513-24.507-12.708-31.327-.627-60.581-4.104-82.374-9.792-18.208-4.751-36.182-11.2-53.422-19.168-2.004-.926-4.152-1.384-6.292-1.384-2.882 0-5.75.83-8.235 2.462-4.331 2.845-6.887 7.723-6.761 12.903l1.625 66.804c.014.551-.175 1.03-.56 1.424-.385.395-.86.595-1.411.595h-26.369c-.607 0-1.114-.235-1.506-.699-.392-.463-.539-1.001-.438-1.6l6.405-38.021c5.821-34.555-6.605-69.059-33.24-92.296-21.99-19.185-82.122-62.172-102.909-76.921 1.654-11.657 6.471-30.169 17.773-39.029 7.048-5.525 16.253-6.953 28.14-4.362 27.471 5.985 31.762 17.46 40.312 40.32 6.044 16.163 13.567 36.278 31.838 57.304 0 0 .007-.004.007-.005.811.934 1.738 1.781 2.785 2.504 34.107 23.581 63.646 39.496 92.959 50.086 32.596 11.776 66.783 17.5 104.516 17.5h99.43l15.167 8.175c-.499.256-.998.514-1.499.771-16.959 8.728-34.495 17.752-51.01 19.578-7.865.87-13.702 7.699-13.335 15.603zm-222.222-169.466c2.636-7.546 7.794-18.998 17.356-30.453 13.818-16.552 32.352-28.138 55.363-34.69l-4.957 25.635-41.374 56.019c-8.837-5.121-17.596-10.636-26.388-16.511zm232.394-.887c12.124 21.221 19.462 42.737 23.51 57.196h-33.317l-23.153-70.858 4.603-23.806c10.435 10.173 19.9 22.665 28.357 37.468zm-146.64-12.484 28.448 17.357-5.107 45.762c-19.885-4.41-38.224-10.911-55.828-19.132zm88.019 16.879 17.253 52.801h-19.364c-11.5 0-22.437-.594-32.922-1.72l5.096-45.663zm3.545-61.703-6.126 31.682-38.081 6.892-34.561-21.086 5.809-30.044c5.958-.504 12.125-.765 18.516-.765 19.873 0 38.046 4.464 54.443 13.321z"/><path d="m79.815 148.855c-7.846 0-15.363 6.899-15 15 .364 8.127 6.591 15 15 15 7.846 0 15.363-6.899 15-15-.364-8.128-6.591-15-15-15z"/></g></svg>